<svg id="Layer_1" data-name="Layer 1" xmlns="http://www.w3.org/2000/svg" viewBox="0 0 100 100"><defs><style>.cls-1{fill:#fff;}</style></defs><title>icon</title><path class="cls-1" d="M74.7,39.43c0,.54,0,1.09,0,1.64,0,16.76-12.75,36.08-36.08,36.08a36,36,0,0,1-19.44-5.69,27.41,27.41,0,0,0,3,.17A25.42,25.42,0,0,0,38,66.2a12.68,12.68,0,0,1-11.85-8.8,12.47,12.47,0,0,0,2.38.23,12.77,12.77,0,0,0,3.35-.45A12.68,12.68,0,0,1,21.69,44.75v-.16a12.57,12.57,0,0,0,5.75,1.58,12.71,12.71,0,0,1-3.93-16.93A36,36,0,0,0,49.65,42.49a13.13,13.13,0,0,1-.33-2.89,12.69,12.69,0,0,1,21.94-8.68,25.22,25.22,0,0,0,8-3.07,12.67,12.67,0,0,1-5.57,7,25.08,25.08,0,0,0,7.28-2A25.93,25.93,0,0,1,74.7,39.43ZM50,3.06A46.94,46.94,0,1,1,3.06,50,46.93,46.93,0,0,1,50,3.06M50,0a50,50,0,1,0,50,50A50.06,50.06,0,0,0,50,0Z"/></svg>