<svg id="Layer_1" data-name="Layer 1" xmlns="http://www.w3.org/2000/svg" viewBox="0 0 100 100"><defs><style>.cls-1{fill:#fff;}</style></defs><title>icon</title><path class="cls-1" d="M75.92,28.35H25.25a4.72,4.72,0,0,0-4.72,4.72V66.13a4.72,4.72,0,0,0,4.72,4.72H75.92a4.72,4.72,0,0,0,4.72-4.72V33.07A4.72,4.72,0,0,0,75.92,28.35Zm-4.44,4.72L50.59,47.82,29.69,33.07Zm4.44,33.06H25.25v-30L49.14,52.94a2.5,2.5,0,0,0,2.89,0L75.92,36.08ZM50,3.06A46.94,46.94,0,1,1,3.06,50,46.93,46.93,0,0,1,50,3.06M50,0a50,50,0,1,0,50,50A50.06,50.06,0,0,0,50,0Z"/></svg>