<svg id="Layer_1" data-name="Layer 1" xmlns="http://www.w3.org/2000/svg" viewBox="0 0 2534.74 2873.71"><defs><style>.cls-1,.cls-3{fill:#fff;}.cls-2{fill:#000000;}.cls-12,.cls-3,.cls-4,.cls-6,.cls-8,.cls-9{stroke:#000000;}.cls-10,.cls-12,.cls-3,.cls-4,.cls-5,.cls-6,.cls-7,.cls-8,.cls-9{stroke-miterlimit:10;}.cls-3,.cls-4{stroke-width:9px;}.cls-10,.cls-12,.cls-13,.cls-4,.cls-5,.cls-6,.cls-7,.cls-8,.cls-9{fill:none;}.cls-5,.cls-7{stroke:#fff;}.cls-5,.cls-7,.cls-9{stroke-width:2px;}.cls-6,.cls-7{stroke-linecap:round;}.cls-6,.cls-8{stroke-width:3px;}.cls-10{stroke:#ed1c24;}.cls-10,.cls-12{stroke-width:5px;}.cls-11{fill:#ed1c24;}</style></defs><title>illustration</title><path class="cls-1" d="M698.61,1806.2c156-240,360-288.09,548-292,192-4,447.12,80,583.12,292"/><path class="cls-1" d="M2291,2271.19c339.61,224.53,111.65,608.45-1088.11,602.45C69,2868-74.85,2483.72,216.22,2271.19"/><path class="cls-1" d="M2282.58,2130.39H254.37c172-180,532.12-420.19,996.24-420.19C1723.05,1710.2,1974.58,1894.39,2282.58,2130.39Z"/><path class="cls-2" d="M1537.79,2038.81c-9.29-10.52-19.62-25.67-54.14-25.67H1028.83c-34.14,0-55.63,12.15-67.9,25.67L797.46,2246.2h900Z"/><polyline class="cls-3" points="2298.61 2213.38 248.61 2213.38 252.61 2132.38 2282.61 2132.38"/><line class="cls-4" x1="1721.3" y1="2135.78" x2="1721.3" y2="2219.79"/><rect class="cls-2" y="2213.15" width="2534.74" height="60.42"/><line class="cls-5" x1="963.85" y1="1446.07" x2="963.85" y2="1566.59"/><line class="cls-5" x1="1231.54" y1="1446.07" x2="1231.54" y2="1566.59"/><line class="cls-5" x1="1499.23" y1="1446.07" x2="1499.23" y2="1566.59"/><line class="cls-6" x1="1231.54" y1="1510.56" x2="1231.54" y2="1566.59"/><line class="cls-6" x1="1499.23" y1="1553.05" x2="1499.23" y2="1566.59"/><line class="cls-5" x1="846.17" y1="1364.91" x2="846.17" y2="1447.02"/><line class="cls-5" x1="1113.87" y1="1326.5" x2="1113.87" y2="1447.02"/><line class="cls-5" x1="1381.56" y1="1326.5" x2="1381.56" y2="1447.02"/><line class="cls-5" x1="1649.25" y1="1359.84" x2="1649.25" y2="1447.02"/><line class="cls-5" x1="846.17" y1="1566.2" x2="846.17" y2="1686.72"/><line class="cls-6" x1="1113.87" y1="1566.2" x2="1113.87" y2="1686.72"/><line class="cls-6" x1="1381.56" y1="1566.2" x2="1381.56" y2="1686.72"/><line class="cls-5" x1="1649.25" y1="1566.2" x2="1649.25" y2="1686.72"/><line class="cls-7" x1="860.44" y1="1326.2" x2="1634.97" y2="1326.2"/><line class="cls-7" x1="809.43" y1="1446.2" x2="1683.79" y2="1446.2"/><line class="cls-7" x1="759.05" y1="1566.2" x2="1726.52" y2="1566.2"/><line class="cls-6" x1="966.96" y1="1566.2" x2="1530.31" y2="1566.2"/><line class="cls-7" x1="701.42" y1="1686.2" x2="1778.39" y2="1686.2"/><line class="cls-7" x1="650.41" y1="1804.99" x2="1830.27" y2="1806.2"/><line class="cls-5" x1="696.16" y1="1708.72" x2="696.16" y2="1806.22"/><line class="cls-8" x1="963.85" y1="1685.71" x2="963.85" y2="1806.22"/><line class="cls-9" x1="1499.23" y1="1685.71" x2="1499.23" y2="1806.22"/><line class="cls-5" x1="1766.92" y1="1685.71" x2="1766.92" y2="1806.22"/><line class="cls-6" x1="1766.92" y1="1723.42" x2="1766.92" y2="1806.22"/><line class="cls-6" x1="797.93" y1="1686.2" x2="1727.6" y2="1686.2"/><line class="cls-6" x1="699.67" y1="1804.99" x2="1822.41" y2="1806.2"/><path class="cls-2" d="M1445.94,2108.08H1063.79c-28.69,0-103.7,9.77-114,20.65,0,0-280,402.16-289.41,412.68-24.61,27.45-25.56,80.87,36.93,80.87l248.1,4.28s-23.89,72.47-25.94,81.15c-2.18,9.22,5.61,28.89,41.92,31.27h567.32c36.3-3.18,49.87-17.89,48.23-30.47-1.47-11.26-29.82-82-29.82-82l241.33-4.68c97.73,0,57.24-62.49,41.14-89.94C1817,2510.5,1540,2112.29,1534.81,2104.48c0-.07-25.81,24.2-25.81,24.2S1474.83,2108.08,1445.94,2108.08Zm76,559.27c0,5.11-5.36,7-10.71,7l-518.09-4.76c-9.52,0-10-4.32-10-9.44l15.14-33.6h500Z"/><path class="cls-2" d="M1742.3,2618.15c10.59,20.77,1.68,23.61-14,23.61l-104.14,2.84c-15.71,0-45.62-.88-45.62-24.31Z"/><path class="cls-2" d="M910.58,2618.15c-8.14,30.21-19.6,28.34-35.31,28.34l-113.61-.94c-15.71,0-24.61-5.68-14.87-29.72Z"/><rect class="cls-2" x="875.44" y="2133.39" width="732.96" height="96.01"/><line class="cls-9" x1="269.38" y1="2136.8" x2="269.38" y2="2220.81"/><line class="cls-9" x1="632.36" y1="2136.8" x2="632.36" y2="2220.81"/><line class="cls-5" x1="995.34" y1="2136.8" x2="995.34" y2="2212.56"/><line class="cls-5" x1="1358.32" y1="2136.8" x2="1358.32" y2="2211.7"/><line class="cls-9" x1="2084.29" y1="2136.8" x2="2084.29" y2="2220.81"/><line class="cls-5" x1="890.3" y1="2133.51" x2="1604.65" y2="2133.51"/><line class="cls-5" x1="877.39" y1="2211.03" x2="1617.09" y2="2211.03"/><path class="cls-2" d="M1481.62,1659h-124.5V1640.9a45.56,45.56,0,0,0-45.51-45.5h-115.7a45.55,45.55,0,0,0-45.5,45.5V1659h-124.5a27.48,27.48,0,0,0-27.49,27.48v291.41a27.49,27.49,0,0,0,27.49,27.49h455.71a27.48,27.48,0,0,0,27.48-27.49V1686.5A27.48,27.48,0,0,0,1481.62,1659Zm-298-18.12a12.33,12.33,0,0,1,12.32-12.32h115.7a12.32,12.32,0,0,1,12.32,12.32V1659H1183.59Z"/><path class="cls-2" d="M1054.46,1657.32a11.51,11.51,0,0,1,11.51-11.51h32.77a11.51,11.51,0,0,1,11.51,11.51Z"/><path class="cls-2" d="M1392.77,1657.32a11.51,11.51,0,0,1,11.51-11.51h32.77a11.51,11.51,0,0,1,11.51,11.51Z"/><line class="cls-9" x1="292.89" y1="2375.65" x2="511.91" y2="2375.65"/><line class="cls-9" x1="589.92" y1="2366.65" x2="682.93" y2="2366.65"/><line class="cls-9" x1="250.89" y1="2504.66" x2="409.9" y2="2504.66"/><line class="cls-9" x1="490.91" y1="2510.66" x2="559.92" y2="2510.66"/><line class="cls-9" x1="703.93" y1="2522.66" x2="754.94" y2="2522.66"/><line class="cls-9" x1="1973.06" y1="2477.66" x2="2084.07" y2="2477.66"/><line class="cls-9" x1="1871.05" y1="2414.65" x2="1988.06" y2="2414.65"/><line class="cls-9" x1="2177.08" y1="2360.65" x2="2318.09" y2="2360.65"/><line class="cls-9" x1="2186.08" y1="2435.66" x2="2339.1" y2="2435.66"/><line class="cls-9" x1="2147.08" y1="2483.66" x2="2414.1" y2="2483.66"/><line class="cls-9" x1="1943.06" y1="2636.68" x2="2192.08" y2="2636.68"/><line class="cls-9" x1="547.92" y1="2660.68" x2="406.9" y2="2660.68"/><line class="cls-5" x1="928.95" y1="2354.65" x2="1108.97" y2="2354.65"/><line class="cls-5" x1="1255.99" y1="2342.65" x2="1312.99" y2="2342.65"/><line class="cls-5" x1="1246.99" y1="2501.66" x2="1409" y2="2501.66"/><line class="cls-5" x1="1490.01" y1="2501.66" x2="1547.02" y2="2501.66"/><path class="cls-10" d="M980.4,1777.43c-223.44-141.79-55.26-495.61,250.9-516.87"/><path class="cls-10" d="M1184.53,1069.21c-272.14,93.55-378.45,335.92-297.65,463.49"/><path class="cls-10" d="M1530.4,1833.29c352.35-171.87,213.74-443.86-35-396,118-35.09,449.71-363.6,181.8-574.11"/><path class="cls-10" d="M1320,895.07c232.83-3.19,714.44-12.76,513.5-357.22"/><path class="cls-11" d="M482.92,801.32c78.26-62.15,352.35-177,495.75-53C1356.81,356.9,1743.74,545.51,1874.51,638c-70.28-360.75-771.45-588.15-966-428.68S491.42,618.48,482.92,801.32Z"/><path class="cls-11" d="M1271.76,882.32c130.75,28.7,344.16,0,397.54-23.56,52.61,38.27,112.63,126.89,112.63,195.46C1724.53,1055.81,1423.23,981.17,1271.76,882.32Z"/><path class="cls-11" d="M594.64,1098.82c236.48,53.42,494.83-59.44,606.44-33.93C1065.63,1079.61,962.56,1221,900.72,1274,744.61,1279.37,637.69,1153,594.64,1098.82Z"/><path class="cls-2" d="M506.13,508.33c-60.31-91.5,371-61.83,506.49-247.35C944.89,490.67,591.52,637.9,506.13,508.33Z"/><path class="cls-11" d="M1592.73,1191.51c102.55,82-137.13,318.23-330.65,313.72C1413.1,1368.2,1460.22,1085.5,1592.73,1191.51Z"/><path class="cls-12" d="M1345.38,193.25C1525,258,1754.69,378.77,1807.7,490.67"/><path class="cls-13" d="M297.55,317.82c17.77,98.1,78.81,180.57,155.28,237.11C385.66,498.58,325,412.59,297.55,317.82Z"/><path class="cls-11" d="M391.59,0H364c-86.54,97.93-96.71,213.22-66.42,317.82C280.44,223.32,303.49,114.31,391.59,0Z"/><path class="cls-11" d="M452.83,554.93c31.53,26.44,64.48,46.36,96.12,57.59.67-.85,1.32-1.7,2-2.55A446,446,0,0,1,452.83,554.93Z"/><path class="cls-11" d="M297.55,317.82C325,412.59,385.66,498.58,452.83,554.93A446,446,0,0,0,551,610c-.68.85-1.33,1.7-2,2.55,21.4,7.6,42.2,11.23,61.53,10.21C852.86,610,1193,133.73,1142,35.93,990.94,159.88,698.75,213.25,500,0H391.59C303.49,114.31,280.44,223.32,297.55,317.82Z"/><path class="cls-11" d="M2083.83,338.66c28.3-56.44-13.67-229.87-102.76-338.66h-16.85C2081.25,151.29,2107.12,260.92,2083.83,338.66Z"/><path class="cls-11" d="M1964.22,0H1859.08c-111.39,165.25-307.83,378.52-390,417.05-94.23,44.17,182.58,17.67,182.58,17.67,194.35-126.63,315.08-53,421.09-82.46,4.48-3.13,8.17-7.74,11.11-13.6C2107.12,260.92,2081.25,151.29,1964.22,0Z"/></svg>