<svg id="Layer_1" data-name="Layer 1" xmlns="http://www.w3.org/2000/svg" viewBox="0 0 2534.74 2873.71"><defs><style>.cls-1,.cls-2{fill:#fff;}.cls-11,.cls-2,.cls-3,.cls-5,.cls-7,.cls-8{stroke:#000;}.cls-11,.cls-2,.cls-3,.cls-4,.cls-5,.cls-6,.cls-7,.cls-8,.cls-9{stroke-miterlimit:10;}.cls-2,.cls-3{stroke-width:9px;}.cls-11,.cls-3,.cls-4,.cls-5,.cls-6,.cls-7,.cls-8,.cls-9{fill:none;}.cls-4,.cls-6{stroke:#fff;}.cls-4,.cls-6,.cls-8{stroke-width:2px;}.cls-5,.cls-6{stroke-linecap:round;}.cls-5,.cls-7{stroke-width:3px;}.cls-9{stroke:#ed1c24;}.cls-11,.cls-9{stroke-width:5px;}.cls-10{fill:#ed1c24;}</style></defs><title>illustration</title><path class="cls-1" d="M698.61,1806.2c156-240,360-288.09,548-292,192-4,447.12,80,583.12,292"/><path class="cls-1" d="M2291,2271.19c339.61,224.53,111.65,608.45-1088.11,602.45C69,2868-74.85,2483.72,216.22,2271.19"/><path class="cls-1" d="M2282.58,2130.39H254.37c172-180,532.12-420.19,996.24-420.19C1723.05,1710.2,1974.58,1894.39,2282.58,2130.39Z"/><path d="M1537.79,2038.81c-9.29-10.52-19.62-25.67-54.14-25.67H1028.83c-34.14,0-55.63,12.15-67.9,25.67L797.46,2246.2h900Z"/><polyline class="cls-2" points="2298.61 2213.38 248.61 2213.38 252.61 2132.38 2282.61 2132.38"/><line class="cls-3" x1="1721.3" y1="2135.78" x2="1721.3" y2="2219.79"/><rect y="2213.15" width="2534.74" height="60.42"/><line class="cls-4" x1="963.85" y1="1446.07" x2="963.85" y2="1566.59"/><line class="cls-4" x1="1231.54" y1="1446.07" x2="1231.54" y2="1566.59"/><line class="cls-4" x1="1499.23" y1="1446.07" x2="1499.23" y2="1566.59"/><line class="cls-5" x1="1231.54" y1="1510.56" x2="1231.54" y2="1566.59"/><line class="cls-5" x1="1499.23" y1="1553.05" x2="1499.23" y2="1566.59"/><line class="cls-4" x1="846.17" y1="1364.91" x2="846.17" y2="1447.02"/><line class="cls-4" x1="1113.87" y1="1326.5" x2="1113.87" y2="1447.02"/><line class="cls-4" x1="1381.56" y1="1326.5" x2="1381.56" y2="1447.02"/><line class="cls-4" x1="1649.25" y1="1359.84" x2="1649.25" y2="1447.02"/><line class="cls-4" x1="846.17" y1="1566.2" x2="846.17" y2="1686.72"/><line class="cls-5" x1="1113.87" y1="1566.2" x2="1113.87" y2="1686.72"/><line class="cls-5" x1="1381.56" y1="1566.2" x2="1381.56" y2="1686.72"/><line class="cls-4" x1="1649.25" y1="1566.2" x2="1649.25" y2="1686.72"/><line class="cls-6" x1="860.44" y1="1326.2" x2="1634.97" y2="1326.2"/><line class="cls-6" x1="809.43" y1="1446.2" x2="1683.79" y2="1446.2"/><line class="cls-6" x1="759.05" y1="1566.2" x2="1726.52" y2="1566.2"/><line class="cls-5" x1="966.96" y1="1566.2" x2="1530.31" y2="1566.2"/><line class="cls-6" x1="701.42" y1="1686.2" x2="1778.39" y2="1686.2"/><line class="cls-6" x1="650.41" y1="1804.99" x2="1830.27" y2="1806.2"/><line class="cls-4" x1="696.16" y1="1708.72" x2="696.16" y2="1806.22"/><line class="cls-7" x1="963.85" y1="1685.71" x2="963.85" y2="1806.22"/><line class="cls-8" x1="1499.23" y1="1685.71" x2="1499.23" y2="1806.22"/><line class="cls-4" x1="1766.92" y1="1685.71" x2="1766.92" y2="1806.22"/><line class="cls-5" x1="1766.92" y1="1723.42" x2="1766.92" y2="1806.22"/><line class="cls-5" x1="797.93" y1="1686.2" x2="1727.6" y2="1686.2"/><line class="cls-5" x1="699.67" y1="1804.99" x2="1822.41" y2="1806.2"/><path d="M1445.94,2108.08H1063.79c-28.69,0-103.7,9.77-114,20.65,0,0-280,402.16-289.41,412.68-24.61,27.45-25.56,80.87,36.93,80.87l248.1,4.28s-23.89,72.47-25.94,81.15c-2.18,9.22,5.61,28.89,41.92,31.27h567.32c36.3-3.18,49.87-17.89,48.23-30.47-1.47-11.26-29.82-82-29.82-82l241.33-4.68c97.73,0,57.24-62.49,41.14-89.94C1817,2510.5,1540,2112.29,1534.81,2104.48c0-.07-25.81,24.2-25.81,24.2S1474.83,2108.08,1445.94,2108.08Zm76,559.27c0,5.11-5.36,7-10.71,7l-518.09-4.76c-9.52,0-10-4.32-10-9.44l15.14-33.6h500Z"/><path d="M1742.3,2618.15c10.59,20.77,1.68,23.61-14,23.61l-104.14,2.84c-15.71,0-45.62-.88-45.62-24.31Z"/><path d="M910.58,2618.15c-8.14,30.21-19.6,28.34-35.31,28.34l-113.61-.94c-15.71,0-24.61-5.68-14.87-29.72Z"/><rect x="875.44" y="2133.39" width="732.96" height="96.01"/><line class="cls-8" x1="269.38" y1="2136.8" x2="269.38" y2="2220.81"/><line class="cls-8" x1="632.36" y1="2136.8" x2="632.36" y2="2220.81"/><line class="cls-4" x1="995.34" y1="2136.8" x2="995.34" y2="2212.56"/><line class="cls-4" x1="1358.32" y1="2136.8" x2="1358.32" y2="2211.7"/><line class="cls-8" x1="2084.29" y1="2136.8" x2="2084.29" y2="2220.81"/><line class="cls-4" x1="890.3" y1="2133.51" x2="1604.65" y2="2133.51"/><line class="cls-4" x1="877.39" y1="2211.03" x2="1617.09" y2="2211.03"/><path d="M1481.62,1659h-124.5V1640.9a45.56,45.56,0,0,0-45.51-45.5h-115.7a45.55,45.55,0,0,0-45.5,45.5V1659h-124.5a27.48,27.48,0,0,0-27.49,27.48v291.41a27.49,27.49,0,0,0,27.49,27.49h455.71a27.48,27.48,0,0,0,27.48-27.49V1686.5A27.48,27.48,0,0,0,1481.62,1659Zm-298-18.12a12.33,12.33,0,0,1,12.32-12.32h115.7a12.32,12.32,0,0,1,12.32,12.32V1659H1183.59Z"/><path d="M1054.46,1657.32a11.51,11.51,0,0,1,11.51-11.51h32.77a11.51,11.51,0,0,1,11.51,11.51Z"/><path d="M1392.77,1657.32a11.51,11.51,0,0,1,11.51-11.51h32.77a11.51,11.51,0,0,1,11.51,11.51Z"/><line class="cls-8" x1="292.89" y1="2375.65" x2="511.91" y2="2375.65"/><line class="cls-8" x1="589.92" y1="2366.65" x2="682.93" y2="2366.65"/><line class="cls-8" x1="250.89" y1="2504.66" x2="409.9" y2="2504.66"/><line class="cls-8" x1="490.91" y1="2510.66" x2="559.92" y2="2510.66"/><line class="cls-8" x1="703.93" y1="2522.66" x2="754.94" y2="2522.66"/><line class="cls-8" x1="1973.06" y1="2477.66" x2="2084.07" y2="2477.66"/><line class="cls-8" x1="1871.05" y1="2414.65" x2="1988.06" y2="2414.65"/><line class="cls-8" x1="2177.08" y1="2360.65" x2="2318.09" y2="2360.65"/><line class="cls-8" x1="2186.08" y1="2435.66" x2="2339.1" y2="2435.66"/><line class="cls-8" x1="2147.08" y1="2483.66" x2="2414.1" y2="2483.66"/><line class="cls-8" x1="1943.06" y1="2636.68" x2="2192.08" y2="2636.68"/><line class="cls-8" x1="547.92" y1="2660.68" x2="406.9" y2="2660.68"/><line class="cls-4" x1="928.95" y1="2354.65" x2="1108.97" y2="2354.65"/><line class="cls-4" x1="1255.99" y1="2342.65" x2="1312.99" y2="2342.65"/><line class="cls-4" x1="1246.99" y1="2501.66" x2="1409" y2="2501.66"/><line class="cls-4" x1="1490.01" y1="2501.66" x2="1547.02" y2="2501.66"/><path class="cls-9" d="M986.4,1772.39c-223.43-141.8-55.25-495.61,250.9-516.87"/><path class="cls-9" d="M1176.29,1064.17c-266,99-366.86,322.59-283.41,463.49"/><path class="cls-9" d="M915,1263.77c-228.67,32.14-570.67-367.08-358-658.83C351.7,522.29,196.29,218.78,360.69,12"/><path class="cls-9" d="M1536.4,1828.25c352.34-171.88,213.74-443.86-35-396,118-35.08,449.72-363.59,181.8-574.1"/><path class="cls-9" d="M1325.94,890c232.83-3.19,714.44-12.76,513.51-357.22"/><path class="cls-9" d="M1670.41,488.16c124.38,51,659.88-13.76,312.74-476.15"/><path class="cls-10" d="M488.92,796.28c78.26-62.15,352.35-177,495.75-53C1362.8,351.86,1749.74,540.48,1880.5,633c-70.27-360.75-771.44-588.15-966-428.67S497.42,613.44,488.92,796.28Z"/><path class="cls-10" d="M1277.76,877.28c144.53,21.41,345.53,1.41,405.4-19.15,52.62,38.27,104.77,122.48,104.77,191.05C1730.52,1050.77,1429.23,976.13,1277.76,877.28Z"/><path class="cls-10" d="M600.64,1093.78c236.48,53.42,494.83-59.44,606.44-33.93-135.45,14.72-238.52,156.07-300.36,209.07C750.61,1274.33,643.69,1148,600.64,1093.78Z"/><path class="cls-10" d="M1598.73,1186.47c102.55,82-137.13,318.23-330.65,313.71C1419.1,1363.15,1466.22,1080.46,1598.73,1186.47Z"/><path class="cls-10" d="M616.49,617.69C858.86,604.94,1199,128.69,1148,30.89,998.14,153.86,709.39,207.36,510.8,0H365.6C147.22,256.31,441.59,626.9,616.49,617.69Z"/><path class="cls-10" d="M1475.05,412c-94.23,44.17,182.58,17.67,182.58,17.67,194.35-126.62,315.08-53,421.09-82.45,47-32.87,7.81-226.71-87.59-347.23H1861.66C1749.72,164.52,1556.41,373.87,1475.05,412Z"/><path class="cls-11" d="M1351.37,188.21C1531,253,1760.69,373.73,1813.7,485.63"/><path d="M512.13,503.3c-60.31-91.51,371-61.84,506.49-247.36C950.89,485.63,597.53,632.86,512.13,503.3Z"/></svg>