<svg id="Layer_1" data-name="Layer 1" xmlns="http://www.w3.org/2000/svg" viewBox="0 0 112.98 116.84"><defs><style>.cls-1{fill:#fff;}</style></defs><title>logo</title><path class="cls-1" d="M25.65,25.43c0,21.4-4.49,30.85-15.31,30.85H0V1.78C0,.74.48.18,2.24.18h7.7C20.6.18,25.65,4.83,25.65,25.43ZM10.5,8.35H9V47.79h1.6c2.48,0,6.37.77,6.39-22.42C17,11,13.39,8.35,10.5,8.35Z"/><path class="cls-1" d="M86.14,55.71S71.84,2.62,71.5,1.19,69,0,67.42,0c-2.08,0-3.36.48-3.6,1.68L51.43,48.27H37.86V35.64H46c1.52,0,1.52-1.44,1.52-8.17h-9.7V8.19H48.12c1.6,0,1.6-.8,1.6-8H30.49a1.64,1.64,0,0,0-1.6,1.6v54.5s25.42.23,26.3.17c1.34-.1,2.49-.57,2.73-1.69l5.22-19.2,8.94-.05s5.34,19.37,5.6,20.34,2.45.6,3.65.6C84.94,56.45,86.08,56.52,86.14,55.71Zm-20.7-28.1,1.81-10c.08.13,1.19.12,1.19.12s2.5,9.45,1.87,9.62Z"/><path class="cls-1" d="M113,25.43c0,21.4-4.49,30.85-15.31,30.85H87.33V1.78c0-1,.48-1.6,2.24-1.6h7.7C107.93.18,113,4.83,113,25.43ZM97.83,8.35H96.31V47.79h1.6c2.48,0,7-2,7-22.35C104.88,11.1,100.71,8.35,97.83,8.35Z"/><path class="cls-1" d="M25.65,85.26c0,21.4-4.49,30.86-15.31,30.86H0V61.62C0,60.57.48,60,2.24,60h7.7C20.6,60,25.65,64.66,25.65,85.26ZM10.5,68.19H9v39.43h1.6c2.48,0,6.22-2.16,6.22-22.52C16.8,70.75,13.39,68.19,10.5,68.19Z"/><path class="cls-1" d="M54.93,114.36c0,1.52-.32,2-4.64,2-1.45,0-3.29-.08-5.29-.24-.24-12.5-3.21-18-5.21-20.91a7.43,7.43,0,0,1-1.37.08h-.56v19.23c0,1.6-.16,1.6-9,1.6V61.62A1.57,1.57,0,0,1,30.49,60H38c10.1,0,15.63,3.37,15.63,16.51,0,7.86-2.32,12.51-5.61,15.07C50.77,95.12,54.53,102.17,54.93,114.36ZM37.86,67.79V87h1.61c2.48,0,4.08-1.64,4.08-10,0-5.77-1-9.28-3.52-9.28Z"/><path class="cls-1" d="M70.12,59.29c10.42,0,14.27,6,14.27,28.14,0,22.52-4.65,29.41-15.15,29.41s-14.43-5.37-14.43-29.09C54.81,66,59.78,59.29,70.12,59.29Zm-.4,48.25c3.93,0,4.81-5.61,4.81-19.79,0-14-.4-19.24-4.73-19.24-3.69,0-4.73,5.53-4.73,21.24C65.07,102.25,65.63,107.54,69.72,107.54Z"/><path class="cls-1" d="M111.83,76.52c0,14.51-7.77,18.93-15.23,18.93H96v19.07c0,1.6-.08,1.6-9,1.6V61.62c0-1.13.24-1.61,1.6-1.61H96.2C106.3,60,111.83,63.38,111.83,76.52Zm-8.22.45c.12-6.35-2.92-9.18-5.4-9.18H96v19.4h1.61C100.13,87.19,103.43,86.77,103.61,77Z"/></svg>